# xmcd
#
# Track frame offsets: 
#        150
#        17116
#        28467
#        41599
#        60069
#        72616
#        88520
#        102285
#        115080
#        125834
#        146277
#        163568
#        174836
#        195238
#
# Disc length: 2775 seconds
#
# Revision: 0
# Processed by: cddbd v1.5.2PL0 Copyright (c) Steve Scherf et al.
# Submitted via: ExactAudioCopyFreeDBPlugin 1.0
#
DISCID=b50ad50e
DTITLE=Aaron Burton - The Return Of Peetie Whitestraw
DYEAR=2013
DGENRE=Blues
TTITLE0=Skeletons In My Closet
TTITLE1=Lonesome Life
TTITLE2=Lafayette
TTITLE3=The Return Of Peetie Whitestraw
TTITLE4=Treat You Right
TTITLE5=High Class Woman
TTITLE6=Grandma's Door
TTITLE7=Money Makin' Woman
TTITLE8=Leave My Girl Alone
TTITLE9=When April Comes 'Round
TTITLE10=Seven Days A Week
TTITLE11=DFW Waltz
TTITLE12=If That's Religion
TTITLE13=Wedding Day
EXTD=
EXTT0=
EXTT1=
EXTT2=
EXTT3=
EXTT4=
EXTT5=
EXTT6=
EXTT7=
EXTT8=
EXTT9=
EXTT10=
EXTT11=
EXTT12=
EXTT13=
PLAYORDER=
